<svg xmlns="http://www.w3.org/2000/svg" viewBox="0 0 354.2 410.49"><defs><style>.a3e2e817-1d4f-4fcd-88bd-3cc897dc1d92{fill:#fff;}</style></defs><g id="b1582e30-28a0-4cb9-8cba-6c69423b6248" data-name="Layer 2"><g id="b63a8ccb-2cf1-49aa-98c1-2202023883dc" data-name="Logos"><path class="a3e2e817-1d4f-4fcd-88bd-3cc897dc1d92" d="M347.66,29.26H304.13a60.87,60.87,0,0,0-40.66,15.9C255.88,52,245.64,62.56,234,62.69a17.43,17.43,0,0,1-10.1-2.55l-.28-.19A9.6,9.6,0,0,1,220,50l8.46-36.41c1.59-6.77-3.09-10.93-9.8-12.77h0C212-1,205.63.07,203.54,6.71L189.35,51.94H164.83L150.64,6.71C148.55.07,142.22-1,135.51.79h0c-6.71,1.84-11.4,6-9.8,12.77L134.17,50a9.59,9.59,0,0,1-3.6,10l-.28.19a17.36,17.36,0,0,1-10.1,2.55C108.54,62.56,98.3,52,90.71,45.16a60.82,60.82,0,0,0-40.66-15.9H6.52c-5.69,0-8.08,3.95-5.45,9L12.24,64.09A60,60,0,0,0,65.11,96.24l42.15.17a4.57,4.57,0,0,1,4.31,6.1L82.88,196.25A23.26,23.26,0,0,0,84,214.39l35.3,62.55a59.36,59.36,0,0,1,6.8,18.31,41.55,41.55,0,0,1,.71,11.4c-2,20.38-10.16,32-9.62,43.28.3,6.33,9.9,20.65,19,31.66,11.58,13.92,25.58,25.8,33.23,27.91a30.05,30.05,0,0,0,15.3,0c7.65-2.11,21.66-14,33.23-27.91,9.15-11,18.75-25.33,19.05-31.66.53-11.27-7.64-22.9-9.62-43.28a41.9,41.9,0,0,1,.71-11.4,59.36,59.36,0,0,1,6.8-18.31l35.3-62.55a23.26,23.26,0,0,0,1.1-18.14l-28.69-93.74a4.58,4.58,0,0,1,4.31-6.1l42.15-.17A60,60,0,0,0,342,64.09l11.17-25.84c2.64-5,.24-9-5.45-9ZM122.23,207.53c-6.55-4.6-9.35-18.47-5.14-27.94h0l35.34,29.27c-10.07,3.95-23.27,3.53-30.2-1.33Zm24.45,138c-6.92-12-5.88-22.45-5.88-22.45s9.52,4.34,16.44,16.37a53.4,53.4,0,0,1,6.88,24.18,53.46,53.46,0,0,1-17.44-18.11Zm60.81,0a53.46,53.46,0,0,1-17.44,18.11,53.4,53.4,0,0,1,6.88-24.18c6.92-12,16.44-16.37,16.44-16.37s1,10.41-5.88,22.45Zm24.45-138c-6.93,4.86-20.13,5.28-30.2,1.33l35.34-29.27h0C241.29,189.05,238.49,202.93,231.94,207.53Z"/></g></g></svg>